<?xml version="1.0" standalone="no"?>
<!DOCTYPE svg PUBLIC "-//W3C//DTD SVG 20010904//EN"
 "http://www.w3.org/TR/2001/REC-SVG-20010904/DTD/svg10.dtd">
<svg version="1.0" xmlns="http://www.w3.org/2000/svg"
 width="300.000000pt" height="322.000000pt" viewBox="0 0 300.000000 322.000000"
 preserveAspectRatio="xMidYMid meet">
<metadata>
Created by potrace 1.10, written by Peter Selinger 2001-2011
</metadata>
<g transform="translate(0.000000,322.000000) scale(0.050000,-0.050000)"
fill="#000000" stroke="none">
<path d="M4515 5045 c-14 -873 -135 -1278 -548 -1827 -476 -632 -1064 -965
-1962 -1109 l-64 -11 -6 379 -5 378 -390 -329 c-214 -182 -556 -469 -760 -639
-203 -171 -370 -316 -370 -324 0 -8 198 -180 440 -383 242 -203 586 -492 765
-644 179 -152 327 -276 330 -276 3 0 2 174 -1 387 l-6 387 182 13 c1139 81
2307 816 2926 1843 406 673 554 1270 554 2241 l0 509 -538 0 -538 0 -9 -595z
m845 -140 c0 -617 -46 -884 -233 -1365 -257 -662 -789 -1320 -1351 -1675 -52
-33 -88 -66 -80 -74 7 -8 5 -12 -6 -9 -11 3 -141 -55 -290 -129 -394 -196
-776 -311 -1239 -373 -279 -38 -441 -178 -441 -384 -1 -162 -11 -158 -352 126
-380 317 -608 519 -608 540 0 16 909 784 941 795 10 3 19 -35 19 -86 0 -387
322 -480 940 -271 370 126 1051 533 1008 604 -6 9 -2 15 9 11 54 -14 402 376
573 642 339 527 489 1085 490 1818 l0 305 310 0 310 0 0 -475z"/>
</g>
</svg>
