<?xml version="1.0" standalone="no"?>
<!DOCTYPE svg PUBLIC "-//W3C//DTD SVG 20010904//EN"
 "http://www.w3.org/TR/2001/REC-SVG-20010904/DTD/svg10.dtd">
<svg version="1.0" xmlns="http://www.w3.org/2000/svg"
 width="300.000000pt" height="322.000000pt" viewBox="0 0 300.000000 322.000000"
 preserveAspectRatio="xMidYMid meet">
<metadata>
Created by potrace 1.10, written by Peter Selinger 2001-2011
</metadata>
<g transform="translate(0.000000,322.000000) scale(0.050000,-0.050000)"
fill="#000000" stroke="none">
<path d="M400 5131 c0 -971 148 -1568 554 -2241 619 -1027 1787 -1762 2926
-1843 l182 -13 -6 -387 c-3 -213 -4 -387 -1 -387 3 0 151 124 330 276 179 152
523 441 765 644 242 203 440 375 440 383 0 8 -166 153 -370 324 -203 170 -545
457 -760 639 l-390 329 -5 -378 -6 -379 -64 11 c-898 144 -1486 477 -1962
1109 -413 549 -534 954 -548 1827 l-9 595 -538 0 -538 0 0 -509z m860 -129 c0
-1257 623 -2301 1690 -2831 815 -405 1310 -376 1310 78 0 68 9 111 22 111 26
0 958 -777 958 -799 0 -18 -163 -162 -588 -519 -371 -312 -392 -319 -392 -132
0 213 -134 331 -421 370 -1936 264 -3219 1724 -3219 3663 l0 437 320 0 320 0
0 -378z"/>
</g>
</svg>
